<svg width="37" height="33" viewBox="0 0 37 33" fill="red" xmlns="http://www.w3.org/2000/svg">
<path d="M32.3208 4.32063C31.508 3.50512 30.5428 2.85821 29.4806 2.41684C28.4183 1.97547 27.2797 1.74829 26.1299 1.74829C24.98 1.74829 23.8414 1.97547 22.7792 2.41684C21.7169 2.85821 20.7518 3.50512 19.9389 4.32063L18.2519 6.0123L16.5649 4.32063C14.9229 2.67414 12.696 1.74914 10.3739 1.74914C8.05183 1.74914 5.82487 2.67414 4.18292 4.32063C2.54097 5.96713 1.61853 8.20025 1.61853 10.5287C1.61853 12.8572 2.54097 15.0904 4.18292 16.7369L5.86992 18.4285L18.2519 30.8448L30.6338 18.4285L32.3208 16.7369C33.1341 15.9217 33.7792 14.9539 34.2194 13.8887C34.6595 12.8235 34.8861 11.6818 34.8861 10.5287C34.8861 9.37572 34.6595 8.23398 34.2194 7.16877C33.7792 6.10357 33.1341 5.13575 32.3208 4.32063V4.32063Z" stroke="red" stroke-width="3.19078" stroke-linecap="round" stroke-linejoin="round"/>
</svg>
